<svg id="Layer_1" enable-background="new 0 0 512 512" height="512" viewBox="0 0 512 512" width="512" xmlns="http://www.w3.org/2000/svg"><g><path d="m456 40v192c0 17.67-14.33 32-32 32-17.679 0-32-14.319-32-32v-192c0-17.67 14.33-32 32-32s32 14.33 32 32z" fill="#595965"/><path d="m408 12.293c9.561 5.534 16 15.867 16 27.707v192c0 11.841-6.441 22.175-16.004 27.709 21.103 12.212 48.004-2.936 48.004-27.709v-192c0-24.732-26.855-39.946-48-27.707z" fill="#44454e"/><path d="m504 72v128c0 13.25-10.75 24-24 24-13.253 0-24-10.759-24-24v-128c0-13.25 10.75-24 24-24s24 10.75 24 24z" fill="#595965"/><path d="m468 51.221c7.17 4.152 12 11.901 12 20.779v128c0 8.877-4.829 16.626-11.998 20.778 15.826 9.158 35.998-2.201 35.998-20.778v-128c0-18.575-20.175-29.942-36-20.779z" fill="#44454e"/><path d="m120 40v192c0 8.84-3.58 16.84-9.37 22.63-19.966 19.966-54.63 5.976-54.63-22.63v-192c0-17.67 14.33-32 32-32s32 14.33 32 32z" fill="#595965"/><path d="m72 12.293c9.561 5.535 16 15.867 16 27.707v192c0 11.646-6.233 22.061-15.996 27.709 21.136 12.231 47.996-2.955 47.996-27.709v-192c0-24.732-26.855-39.946-48-27.707z" fill="#44454e"/><path d="m56 72v128c0 6.62-2.69 12.62-7.03 16.97-15.076 15.042-40.97 4.353-40.97-16.97v-128c0-13.25 10.75-24 24-24s24 10.75 24 24z" fill="#595965"/><path d="m56 72v128c0 13.252-10.759 24-24 24v-176c13.25 0 24 10.75 24 24z" fill="#44454e"/><path d="m344 72c0 34.634.46 34.889-1.38 40-46.421 0-43.384-.051-45.2.12-1.895-3.812-1.42-9.067-1.42-40.12 0-13.25 10.75-24 24-24 13.253 0 24 10.759 24 24z" fill="#ebb19c"/><path d="m307.998 51.222c7.538 4.363 12.002 12.297 12.002 20.778 0 34.634.46 34.889-1.38 40h24c1.84-5.111 1.38-5.368 1.38-40 0-18.361-19.972-30.061-36.002-20.778z" fill="#e58d72"/><path d="m296 56c0 49.861.574 51.451-1.58 56.56-8.68 1.75-15.9 7.52-19.65 15.28-10.949 1.325-21.634-5.201-25.39-15.84-1.863-5.174-1.38-3.222-1.38-56 0-21.309 25.887-32.019 40.97-16.97 4.34 4.35 7.03 10.35 7.03 16.97z" fill="#ebb19c"/><path d="m259.998 35.222c7.538 4.363 12.002 12.297 12.002 20.778 0 49.861.574 51.451-1.58 56.56-5.957 1.201-11.226 4.296-15.157 8.627 5.367 5.232 12.647 7.482 19.508 6.652 3.75-7.76 10.97-13.53 19.65-15.28 2.118-5.025 1.58-4.777 1.58-56.56-.001-18.36-19.973-30.06-36.003-20.777z" fill="#e58d72"/><path d="m248 64v40c0 13.25-10.75 24-24 24s-24-10.75-24-24v-40c0-21.309 25.887-32.019 40.97-16.97 4.34 4.35 7.03 10.35 7.03 16.97z" fill="#ebb19c"/><path d="m211.998 43.222c7.538 4.363 12.002 12.297 12.002 20.778v40c0 8.878-4.83 16.627-12 20.779 15.823 9.163 36-2.202 36-20.779v-40c0-18.361-19.972-30.061-36.002-20.778z" fill="#e58d72"/><path d="m200 88v16c0 13.25-10.75 24-24 24s-24-10.75-24-24v-16c0-21.309 25.887-32.019 40.97-16.97 4.34 4.35 7.03 10.35 7.03 16.97z" fill="#ebb19c"/><path d="m163.998 67.222c7.538 4.363 12.002 12.297 12.002 20.778v16c0 8.878-4.83 16.627-12 20.779 15.823 9.163 36-2.202 36-20.779v-16c0-18.361-19.972-30.061-36.002-20.778z" fill="#e58d72"/><path d="m360 128v85.75c0 6.66-2.08 13.17-5.96 18.59l-28.08 39.32c-3.88 5.42-5.96 11.93-5.96 18.59v221.75h-128v-221.75c0-6.66-2.08-13.17-5.96-18.59l-28.08-39.32c-3.88-5.42-5.96-11.93-5.96-18.59v-45.75h148c-15.458 0-28-12.54-28-28 0-13.563 9.641-24.864 22.42-27.44 3.826-.782 2.42-.56 49.58-.56 8.84 0 16 7.16 16 16z" fill="#ebb19c"/><path d="m344 112h-40c8.84 0 16 7.16 16 16v85.75c0 6.66-2.08 13.17-5.96 18.59l-28.08 39.32c-3.88 5.42-5.96 11.93-5.96 18.59v221.75h40v-221.75c0-6.66 2.08-13.17 5.96-18.59l28.08-39.32c3.88-5.42 5.96-11.93 5.96-18.59v-85.75c0-8.84-7.16-16-16-16z" fill="#e58d72"/><path d="m300 168h-180v-64h32c0 13.25 10.75 24 24 24s24-10.75 24-24c0 13.25 10.75 24 24 24s24-10.75 24-24c0 14.377 12.658 25.547 26.77 23.84-8.974 18.658 4.704 40.16 25.23 40.16z" fill="#d2d2fc"/><path d="m392 104v64h-32v-40c0-8.84-7.16-16-16-16h-1.38c.9-2.5 1.38-5.2 1.38-8z" fill="#d2d2fc"/><path d="m464 44.31v-3.561c0-21.847-17.205-40.227-39.046-40.737-22.495-.527-40.954 17.611-40.954 39.988v56h-32v-24c0-25.554-28.631-40.797-49.79-26.58-8.95-25.539-43.641-29.101-57.62-5.91-19.362-16.309-49.523-4.57-52.38 20.89-21.775-12.833-48.21 3.844-48.21 28.322v7.278h-16v-55.251c0-21.847-17.205-40.227-39.046-40.737-22.495-.527-40.954 17.611-40.954 39.988v4.31c-21.349-12.42-48 3.344-48 28.391v126.575c0 24.272 26.202 41.096 48 28.434v3.592c0 22.128 18.103 40.822 40.231 40.698 22.019-.124 39.769-17.968 39.769-40v-56h16v37.75c0 8.4 2.58 16.43 7.45 23.24l28.09 39.33c2.92 4.08 4.46 8.9 4.46 13.93v213.75c0 4.418 3.582 8 8 8 4.416 0 8-3.579 8-8v-213.75c0-8.4-2.58-16.43-7.45-23.24l-28.09-39.33c-2.92-4.08-4.46-8.9-4.46-13.93v-37.75h151.728c4.262 0 7.982-3.218 8.255-7.471.299-4.66-3.388-8.529-7.983-8.529h-12c-11.418 0-20.597-9.542-19.97-21.13.571-10.017 8.426-17.873 18.14-18.79 1.497-.125 45.94-.08 45.83-.08 4.418 0 8 3.582 8 8v85.75c0 5.03-1.54 9.85-4.47 13.94l-28.07 39.31c-4.88 6.82-7.46 14.85-7.46 23.25v213.75c0 4.418 3.582 8 8 8 4.416 0 8-3.579 8-8v-213.75c0-5.03 1.54-9.85 4.47-13.94l28.07-39.31c4.88-6.82 7.46-14.85 7.46-23.25v-37.75h16v56c0 22.018 17.738 39.876 39.769 39.999 22.128.124 40.231-18.569 40.231-40.697v-3.592c21.798 12.662 48-4.117 48-28.424v-126.585c0-25.006-26.608-40.836-48-28.391zm-416 155.69c0 8.809-7.129 16-16 16-8.82 0-16-7.18-16-16v-128c0-8.82 7.18-16 16-16s16 7.18 16 16zm64 32c0 13.26-10.735 24-24 24-13.23 0-24-10.77-24-24v-192c0-13.23 10.77-24 24-24s24 10.77 24 24zm96-168c0-14.265 17.284-21.313 27.31-11.32 3.02 3.03 4.69 7.05 4.69 11.32v40c0 8.82-7.18 16-16 16s-16-7.18-16-16zm-48 24c0-14.265 17.284-21.313 27.31-11.32 3.02 3.03 4.69 7.05 4.69 11.32v16c0 8.82-7.18 16-16 16s-16-7.18-16-16zm-32 72v-48h17.01c6.299 24.67 38.824 32.46 54.99 13.14 6.37 7.613 18.237 12.421 29.07 10.45 5.956-.739 14.169-4.726 18.93-10.44.027.054 1.686 1.768 1.73 1.81 4.441 4.282 9.2 6.649 14.6 8.11-.024.283-.11.873-.19 1.92-.708 8.484 1.532 16.462 5.92 23.01zm159.86-53.89c-6.21 2.072-13.329 7.202-17.71 13.77-4.231-.344-8.836-2.949-11.67-7.35-3.302-5.333-2.48-3.957-2.48-56.53 0-8.82 7.18-16 16-16 8.809 0 16 7.129 16 16 0 52.909.057 48.601-.14 50.11zm48.14-2.11h-32v-32c0-14.265 17.284-21.313 27.31-11.32 3.02 3.03 4.69 7.05 4.69 11.32zm48 56h-16c0-34.271.155-33.876-.45-36.6-.911-4.776-3.605-9.325-5.68-11.4h22.13zm64 72c0 21.444-25.986 31.954-40.97 16.97-4.53-4.53-7.03-10.56-7.03-16.97v-192c0-13.23 10.77-24 24-24s24 10.77 24 24zm48-32c0 14.266-17.285 21.313-27.31 11.32-3.02-3.03-4.69-7.05-4.69-11.32v-128c0-8.82 7.18-16 16-16s16 7.18 16 16z"/><path d="m232 280c-4.418 0-8 3.582-8 8v64c0 4.418 3.582 8 8 8s8-3.582 8-8v-64c0-4.418-3.582-8-8-8z"/><path d="m265.083 288c-4.605 0-8.038 3.636-8.083 7.917l-1 96c-.046 4.418 3.499 8.036 7.917 8.083 4.605 0 8.038-3.636 8.083-7.917l1-96c.046-4.418-3.499-8.036-7.917-8.083z"/><path d="m280 200c-17.645 0-32 14.355-32 32 0 4.418 3.582 8 8 8s8-3.582 8-8c0-8.822 7.178-16 16-16 4.418 0 8-3.582 8-8s-3.582-8-8-8z"/></g></svg>