<svg id="Layer_1" enable-background="new 0 0 510 510" height="512" viewBox="0 0 510 510" width="512" xmlns="http://www.w3.org/2000/svg"><g><g><path d="m509.551 239.875v30.254c.606-10.328.592-20.127 0-30.254z" fill="#d3effb"/><path d="m491.882 160.43c-22.653-56.691-65.061-103.351-118.721-131.46l-119.6-16.422-95.589 6.452c-32.981 13.429-43.323 24.184-57.815 33.179-2.554 2.047-3.878 3.253-3.903 3.267 0 0-2.513 3.137-2.983 5.222-3.818 16.948-7.385 39.663-7.385 56.238 0 140.833 118.763 254.972 259.596 254.972 50.529 0 106.35-22.567 146.401-50.926v-160.522z" fill="#d3effb"/><path d="m345.459 364.679c-162.238 0-283.728-149.884-249.205-309.234-4.328 3.448-8.542 7.034-12.634 10.751l-7.306 13.479-9.493 3.26c-1.099 1.201-2.186 2.412-3.261 3.633l-2.768 7.694-7.689 4.979c-6.522 8.441-12.527 17.302-17.967 26.536l-2.019 10.956-7.888 7.568c-5.837 12.091-10.748 24.712-14.641 37.773l-10.548 77.33c.318 18.785 2.668 37.076 6.838 54.661l5.254 5.059-1.467 9.076c6.167 20.616 7.778 19.71 19.629 47.448.603 1.12 1.213 2.235 1.832 3.345l8.41 8.135 4.264 12.273c1.612 2.342 3.261 4.655 4.948 6.939l11.099 6.613-.641 6.613c1.488 1.759 2.999 3.498 4.533 5.217l10.97 6.469 7.307 12.02c6.814 6.228 13.968 12.092 21.43 17.559l282.327 12.495c.982-.594 1.96-1.194 2.934-1.801l2.24-8.952 8.243 2.058c4.376-3.034 8.654-6.203 12.828-9.5l61.057-77.328 6.696-4.146c2.613-4.965 5.069-10.03 7.359-15.187l4.573-40.59c-41.592 29.471-92.391 46.799-147.244 46.799z" fill="#b1e4f9"/></g><g><g><g><g><path d="m494.23 166.375h-81.104l-42.577-73.745 42.577-73.745h81.104v-12.673h-88.421l-49.893 86.418 49.893 86.418h88.421z" fill="#41378c"/></g><g><path d="m491.246 86.466-35.543-35.544-41.708 41.708 41.708 41.707 35.543-35.543z" fill="#ffe65a"/></g></g><g><g><path d="m147.097 63.138h58.983v58.983h-58.983z" fill="#ffe65a" transform="matrix(.707 .707 -.707 .707 117.221 -97.736)"/></g></g><g><g><path d="m494.23 242.543c-4.535-17.032-20.087-29.62-38.527-29.62-21.984 0-39.87 17.885-39.87 39.869s17.886 39.869 39.87 39.869c18.441 0 33.992-12.587 38.527-29.62zm-38.527 37.445c-14.996 0-27.196-12.2-27.196-27.196s12.2-27.196 27.196-27.196 27.195 12.2 27.195 27.196-12.199 27.196-27.195 27.196z" fill="#21386b"/></g><circle cx="455.703" cy="252.792" fill="#dd544f" r="33.532"/></g><path d="m316.398 46.081c16.637 0 30.444-12.116 33.079-28.006-20.437-8.157-42.176-13.745-64.82-16.368-1.161 3.401-1.792 7.048-1.792 10.842.001 18.519 15.014 33.532 33.533 33.532z" fill="#dd544f"/><path d="m296.179 137.69h40.439l20.219 35.021-20.219 35.021h-40.439l-20.219-35.021z" fill="#6bbef6"/><g><path d="m378.541 426.844v25.345l11.164 19.337c3.595-2.24 7.13-4.567 10.604-6.979z" fill="#21386b"/></g><path d="m435.483 377.934-20.219 35.021 20.158 22.242c14.567-14.575 27.393-30.922 38.118-48.717l2.382-8.546z" fill="#6bbef6"/></g><g><path d="m38.461 291.442-27.798 36.759c1.5 5.014 3.15 9.963 4.945 14.842l22.853 31.814 41.707-41.707z" fill="#ffe65a"/><path d="m58.68 137.967h-30.284c-8.579 16.573-15.393 34.206-20.194 52.652l10.04 17.39h40.438l20.22-35.022z" fill="#6bbef6"/></g></g><path d="m253.561 0v.02c-5.476.031-8.975.13-15.399.549l.013-.023c-5.267.343-10.907.902-15.488 1.481l-.012.02c-21.605 2.732-43.338 8.282-64.419 16.838h.007c-.096.039-.196.076-.291.115h12.28v29.298l-37.995 37.995h-36.427l29.61-51.287c-.379.221-.746.441-1.118.661l.003-.005c-.146.086-.285.171-.43.257-.388.231-.771.461-1.152.69-.301.181-.602.362-.898.542-.377.229-.747.456-1.116.683-.288.177-.577.355-.861.531-.368.229-.727.454-1.087.68-.271.17-.544.341-.81.51-.36.228-.71.453-1.061.679-.255.164-.514.329-.764.491-.36.233-.709.462-1.059.692-.228.149-.46.3-.683.448-.389.257-.766.51-1.144.762-.173.116-.352.234-.522.349-.542.365-1.071.725-1.587 1.079-.089.061-.172.119-.26.18-.424.292-.844.583-1.251.867-.192.134-.373.263-.561.395-.294.207-.59.415-.875.618-.204.145-.398.285-.597.428-.255.183-.511.366-.757.545-.202.146-.394.287-.59.43-.232.17-.465.34-.69.505-.189.14-.371.275-.555.411-.219.162-.436.324-.647.482-.178.133-.349.262-.521.392-.203.153-.403.305-.598.453-.166.127-.327.25-.488.374-.185.142-.366.281-.543.418-.159.123-.314.243-.466.362-.078.061-.163.126-.24.187l-.001.003c-.481.377-.94.739-1.356 1.073l-14.2 24.596-2.335-10.577c-5.854 5.318-11.461 10.904-16.8 16.739l3.971 3.634h-7.232c-3.618 4.109-7.106 8.335-10.458 12.673h17.69l-32.331 29.58-3.327-3.044c-1.139 1.934-2.251 3.885-3.341 5.851h-.002c-.056.1-2.279 4.197-2.98 5.54l.008.007c-1.23 2.356-2.433 4.728-3.591 7.126h29.795l16.561 28.685-16.561 28.684h-33.122l-11.314-19.596c-.271.909-.529 1.825-.79 2.738-.003-.001-.006-.003-.009-.004-1.359 4.75-2.779 10.414-3.74 14.75l.002.004c-3.381 15.254-5.395 31.022-5.91 47.169h-.007c-.028.896-.108 4.695-.118 5.595l.008-.007c-.018 1.755-.045 3.486.016 7.084h32.086v29.414l-25.248 25.247c1.13 4.765 2.394 9.478 3.787 14.135l27.798-27.798 32.746 32.746-32.746 32.746-22.853-22.853c4.144 11.263 9.06 22.154 14.684 32.606l1.832 1.832v1.513c3.91 7.013 8.141 13.822 12.674 20.408v-21.921l37.995-37.995h37.163l-38.599 66.855h-31.611c.138.187.284.367.422.553h-.012c3.852 5.187 9.117 11.567 9.582 12.12h.013c.153.182.299.371.453.553h10.236l-5.702 5.217c5.776 6.468 11.876 12.639 18.276 18.489l3.399-15.387 19.736 34.184c3.63 2.614 7.33 5.134 11.099 7.558l4.368-6.112-23.847-41.305 31.874 10.077v-13.291l-19.108-6.041 19.108-6.041v-13.291l-32.183 10.173 31.633-54.791.55 2.489v-34.32l-32.049-55.51 32.049 10.132v-13.292l-18.072-5.713 18.072-5.713v-.945c0-4.734 2.896-7.594 6.404-8.59.376-1.353 1.099-2.692 2.269-3.94 3.164-3.374 7.35-6.49 10.05-10.065.713-.944 1.268-1.992 1.722-3.098l-5.49-24.854 9.328 8.534c1.245-4.465 2.884-8.649 5.048-12.558l-13.68-12.516h23.579c.154-.141.299-.286.455-.427 5.079-4.545 10.781-8.292 16.315-12.246h-2.716v-29.414l44.331-44.331-44.331-44.331v-29.297h36.306l40.378 69.936c6.701 3.994 9.993 11.531 13.519 18.532 2.861 5.68 7.133 10.225 11.677 14.533l-1.435-6.495 17.322 15.848h-5.982c3.852 3.875 7.405 8.012 10.137 12.673h28.111l16.562 28.685-9.574 16.583c7.186 5.945 10.843 14.676 10.769 24.106-.03 3.863-1.305 8.187 1.643 10.703 3.248 2.772 7.051 4.84 10.277 7.665.077.067.148.141.224.209l-8.214-37.183 41.784-13.209-30.747 53.254c5.96 6.801 9.638 16.192 11.644 24.692.223.946.411 1.9.609 2.851l39.519 12.494-9.452 42.789-29.184-50.547c1.551 9.406 2.013 19.027 1.928 28.684l17.745 30.736h-19.141c-.152 2.508-.302 5.008-.434 7.489-.092 1.729-.169 3.456-.235 5.184h19.81l-19.762 34.228c.27 7.786.679 15.565 1.156 23.341l28.115-48.697 9.452 42.789-37.197 11.76c.457 7.033.952 14.065 1.431 21.098l35.766 11.308-4.439 20.094c4.441-3.508 8.757-7.168 12.954-10.961l.005.008c.342-.309.673-.628 1.013-.939.683-.624 1.371-1.241 2.047-1.872l.007-.032c2.157-2.014 4.293-4.052 6.38-6.14l-12.842-22.242 16.562-28.684h33.122l1.276 2.209c2.528-4.195 4.94-8.47 7.23-12.822l-1.189-2.06h-8.171l17.321-15.847-.601 2.721c1.005-2.264 1.975-4.548 2.916-6.847v.01c1.04-2.537 2.475-6.259 3.186-8.182v-.058c10.448-28.316 15.806-58.467 15.763-88.858h.006v-254.537zm-187.136 138.707-4.086-7.077h-8.172l17.322-15.848zm19.62-30.069 31.936 55.316-41.272-13.048zm-3.915 57.272 22.386 7.077-22.386 7.077 4.086-7.077zm-19.791 48.434 4.086-7.077 5.063 22.925-17.322-15.848zm-51.841-7.076 4.086 7.077h8.171l-17.321 15.847zm-4.368 39.464 32.331-29.58 32.331 29.58zm113.826 80.081h-37.164l-37.995-37.995v-29.414h36.24zm-33.796-88.953-9.451-42.79 41.782-13.209zm11.433 6.059 32.332-55.999 9.452 42.789zm72.659-77.544h-35.823l-38.918-67.409h36.745l37.996 37.995zm39.083-73.745-32.746 32.747-32.747-32.747 32.747-32.746zm59.364-15.209-32.331-56 41.782 13.209zm73.849-57.421c-3.249 11.383-13.738 19.744-26.15 19.744s-22.9-8.361-26.149-19.744zm6.181 66.293h-64.662l32.331-29.58zm-59.219-44.336c4.219 3.861 9.269 6.826 14.846 8.597l-20.985 19.199zm-5.442 57.009h64.662l-32.331 29.58zm60.293 39.465-4.086-7.077h-8.171l17.321-15.847zm-15.917-87.874c5.577-1.771 10.622-4.742 14.841-8.602l6.14 27.798zm61.204 362.397 22.385-7.077-4.086 7.077 4.086 7.077zm38.859-160.162c0-14.996 12.2-27.196 27.196-27.196s27.195 12.2 27.195 27.196-12.199 27.196-27.195 27.196-27.196-12.2-27.196-27.196zm15.153 38.006-20.985 19.199 6.139-27.795c4.22 3.86 9.269 6.825 14.846 8.596zm-20.289-111.75h64.662l-32.331 29.58zm-20.856-159.048h46.852v28.298l-37.995 37.995h-45.313l-11.412-51.663zm53.188 39.883 32.746 32.746-32.746 32.747-32.747-32.746zm-95.636 119.905 4.086-7.077-4.086-7.077 22.385 7.077zm-5.422-29.159 9.452-42.79 32.332 56zm62.127 110.738-27.123-8.575 27.123-8.575c-.608 2.764-.939 5.631-.939 8.575s.33 5.811.939 8.575zm-41.1-17.448 32.332-55.999 9.452 42.789zm36.854-77.544-38.919-67.409h37.763l37.996 37.995v29.413h-36.84zm31.135 48.412c-5.577 1.771-10.627 4.736-14.846 8.596l-6.14-27.796zm-11.836 156.81-4.086 7.077-5.063-22.925 17.322 15.848zm23.878-2.807-32.332-29.58h64.663zm-32.332-42.253 32.332-29.58 32.331 29.58zm44.346-35.733c5.588-1.771 10.648-4.737 14.873-8.604l6.14 27.797c-10.074-8.945-16.603-15.041-21.013-19.193zm14.873-67.42c-4.219-3.862-9.27-6.824-14.847-8.596l20.987-19.201zm7.41-57.009h-27.96v-29.414l27.96-27.961zm0-90.116-27.96-27.96v-28.299h27.96z" fill="#41378c"/><path d="m383.773 461.204 5.953 10.31c3.594-2.24 7.13-4.568 10.603-6.98l-17.999-31.175c.596 9.275 1.119 18.555 1.443 27.845z" fill="#41378c"/><g><path d="m376.771 374.694v-118.024c0-16.763-13.589-30.352-30.352-30.352v-18.772c0-22.465-18.212-40.677-40.677-40.677 0-19.409-12.687-35.848-30.218-41.496v-30.92l-23.514-17.419-23.514 17.419v30.919c-17.531 5.648-30.218 22.087-30.218 41.496-22.465 0-40.677 18.212-40.677 40.677v18.772c-16.763 0-30.352 13.589-30.352 30.352v118.024h249.522z" fill="#6e64c3"/><path d="m345.459 364.679c-91.004 0-170.874-47.671-215.999-119.404-4.644 11.458-1.415 3.797 7.789 235.968 35.224 18.371 75.275 28.757 117.751 28.757 39.95 0 77.92-9.238 111.771-25.772l9.999-121.454c-10.261 1.257-20.71 1.905-31.311 1.905z" fill="#5046af"/><path d="m356.418 217.571v-10.026c0-24.795-17.898-45.488-41.454-49.836-2.916-17.002-13.842-31.557-29.44-39.083v-29.21l-33.515-24.827-1.174.869v24.89l1.174-.869 13.515 10.012v33.167l6.934 2.234c13.927 4.487 23.284 17.338 23.284 31.978v10h10c16.915 0 30.677 13.762 30.677 30.677v28.772h10c11.223 0 20.353 9.13 20.353 20.352v227.558c6.841-3.341 13.513-6.98 20-10.902v-216.657c-.001-18.8-12.925-34.638-30.354-39.099z" fill="#fff"/><path d="m251.662 64.846-33.167 24.57v29.211c-15.6 7.525-26.525 22.08-29.441 39.083-23.556 4.348-41.454 25.041-41.454 49.836v10.026c-17.429 4.46-30.352 20.299-30.352 39.098v212.958c6.472 4.162 13.145 8.04 20 11.616v-224.574c0-11.222 9.13-20.352 20.352-20.352h10v-28.772c0-16.915 13.762-30.677 30.677-30.677h10v-10c0-14.64 9.357-27.491 23.285-31.978l6.934-2.233v-33.168l13.167-9.755v-24.889z" fill="#e6dcdc"/></g></g></svg>