<?xml version="1.0" encoding="iso-8859-1"?>
<!-- Generator: Adobe Illustrator 21.0.0, SVG Export Plug-In . SVG Version: 6.00 Build 0)  -->
<svg version="1.1" id="Capa_1" xmlns="http://www.w3.org/2000/svg" xmlns:xlink="http://www.w3.org/1999/xlink" x="0px" y="0px"
	 viewBox="0 0 512 512" style="enable-background:new 0 0 512 512;" xml:space="preserve">
<g>
	<path style="fill:#C0694E;" d="M280.766,312.608v161.07c0,4.468-3.619,8.077-8.077,8.077h-33.379c-4.458,0-8.077-3.609-8.077-8.077
		v-161.07H280.766z"/>
	<path style="fill:#C0694E;" d="M202.556,312.608l-12.939,48.744l-30.376,114.399c-0.94,3.548-4.145,6.004-7.814,6.004h-34.531
		c-5.307,0-9.168-5.024-7.804-10.149l29.274-110.254l12.949-48.744H202.556z"/>
	<path style="fill:#C0694E;" d="M395.104,481.755h-34.531c-3.669,0-6.874-2.456-7.814-6.004l-30.376-114.399l-12.939-48.744h51.24
		l12.949,48.744l29.274,110.254C404.273,476.731,400.411,481.755,395.104,481.755z"/>
</g>
<g>
	<polygon style="fill:#954C35;" points="151.315,312.608 202.556,312.608 189.617,361.352 138.366,361.352 	"/>
	<rect x="231.234" y="312.608" style="fill:#954C35;" width="49.532" height="48.744"/>
	<polygon style="fill:#954C35;" points="373.634,361.352 322.383,361.352 309.444,312.608 360.685,312.608 	"/>
	<path style="fill:#954C35;" d="M504.419,49.3v257.85c0,4.63-1.658,8.875-4.397,12.181c-3.498,4.205-8.774,6.884-14.668,6.884
		H26.646c-6.045,0-11.433-2.81-14.92-7.207c-2.598-3.255-4.145-7.379-4.145-11.857V49.3c0-4.417,1.506-8.491,4.023-11.716
		c3.498-4.468,8.936-7.339,15.042-7.339h458.708c6.116,0,11.554,2.871,15.042,7.349C502.923,40.818,504.419,44.892,504.419,49.3z"/>
</g>
<path style="fill:#5A5555;" d="M474.093,72.064v212.321c0,6.348-5.145,11.504-11.493,11.504H49.401
	c-6.348,0-11.493-5.155-11.493-11.504V72.064c0-6.348,5.145-11.493,11.493-11.493h413.199
	C468.948,60.571,474.093,65.716,474.093,72.064z"/>
<path style="fill:#736E6E;" d="M474.093,72.064v205.134H84.033c-6.358,0-11.504-5.155-11.504-11.504V60.571h390.07
	C468.948,60.571,474.093,65.716,474.093,72.064z"/>
<g>
	<path style="fill:#C0694E;" d="M500.395,37.594l-0.02,0.01l-29.83,26.161c-2.062-1.981-4.862-3.194-7.945-3.194H49.401
		c-3.083,0-5.883,1.213-7.945,3.194l-29.83-26.161l-0.02-0.02c3.498-4.468,8.936-7.339,15.042-7.339h458.708
		C491.469,30.245,496.908,33.116,500.395,37.594z"/>
	<path style="fill:#C0694E;" d="M500.021,319.33c-3.498,4.205-8.774,6.884-14.668,6.884H26.646c-6.045,0-11.433-2.81-14.92-7.207
		l7.986-6.975l21.895-19.206c2.052,1.9,4.781,3.063,7.794,3.063h413.199c2.972,0,5.681-1.132,7.723-2.992l26.009,22.815
		L500.021,319.33z"/>
</g>
<path style="fill:#F77026;" d="M440.987,265.775v30.113h-96.032v-30.113c0-8.097,6.56-14.657,14.657-14.657h66.717
	C434.427,251.118,440.987,257.678,440.987,265.775z"/>
<path style="fill:#F9935C;" d="M440.987,265.775v20.005H374.84c-5.897,0-10.678-4.78-10.678-10.678v-19.436
	c0-1.587,0.253-3.124,0.718-4.549h61.45C434.425,251.118,440.987,257.68,440.987,265.775z"/>
<path d="M485.354,22.663H26.646C11.948,22.663,0,34.612,0,49.3v257.85c0,14.622,11.903,26.646,26.646,26.646h111.194l-36.078,135.87
	c-2.639,9.881,4.796,19.671,15.133,19.671h34.531c7.096,0,13.323-4.781,15.143-11.635l38.21-143.906h18.873v139.883
	c0,8.633,7.025,15.658,15.658,15.658h33.379c8.633,0,15.658-7.025,15.658-15.658V333.796h18.873l38.21,143.906
	c1.82,6.854,8.046,11.635,15.143,11.635h34.531c8.633,0,15.658-7.015,15.658-15.638c0-3.514-0.841-4.639-4.953-20.702
	c-1.072-4.043-5.226-6.459-9.27-5.378c-4.043,1.072-6.459,5.226-5.378,9.27l4.417,16.669c0.085,0.213-0.093,0.617-0.475,0.617
	h-34.531c-0.233,0-0.425-0.152-0.485-0.364l-37.179-140.014h35.562l24.908,93.788c1.072,4.043,5.226,6.459,9.27,5.378
	c4.043-1.072,6.459-5.226,5.378-9.27l-23.866-89.896h111.194c14.633,0,26.646-11.897,26.646-26.646V49.3
	C512,34.612,500.052,22.663,485.354,22.663z M15.163,50.787l16.455,14.43c-0.822,2.13-1.292,4.433-1.292,6.849v212.321
	c0,2.482,0.491,4.847,1.357,7.024l-16.519,14.487V50.787z M151.912,473.81c-0.061,0.212-0.253,0.364-0.485,0.364h-34.531
	c-0.317,0-0.569-0.289-0.475-0.617l37.119-139.761h35.552L151.912,473.81z M273.185,473.678c0,0.273-0.222,0.495-0.495,0.495
	h-33.379c-0.273,0-0.495-0.222-0.495-0.495V333.796h34.369V473.678z M485.354,318.633c-490.018,0-459.401,0.143-461.353-0.319
	l18.449-16.179c2.158,0.849,4.499,1.331,6.956,1.331H151.71c4.187,0,7.581-3.394,7.581-7.581c0-4.187-3.394-7.581-7.581-7.581
	H49.406c-2.16,0-3.917-1.757-3.917-3.917V72.065c0-2.177,1.826-3.917,3.917-3.917h340.745c4.187,0,7.581-3.394,7.581-7.581
	s-3.394-7.581-7.581-7.581H49.406c-2.526,0-4.934,0.504-7.143,1.4l-18.46-16.189c0.911-0.232,1.86-0.37,2.844-0.37h458.708
	c0.984,0,1.933,0.136,2.844,0.37l-18.46,16.189c-2.209-0.896-4.617-1.4-7.143-1.4h-42.117c-4.187,0-7.581,3.394-7.581,7.581
	s3.394,7.581,7.581,7.581h42.117c2.128,0,3.917,1.778,3.917,3.917v212.321c0,2.16-1.757,3.917-3.917,3.917h-14.026v-22.532
	c0-12.263-9.976-22.239-22.239-22.239c-68.372,0.545-67.977-1.233-75.023,1.615l2.467-3.377c2.47-3.381,1.731-8.124-1.651-10.594
	c-3.381-2.47-8.125-1.73-10.594,1.651l-24.059,32.939c1.364-6.13-4.963-11.228-10.688-8.469l-64.326,31.007h-60.421
	c-4.187,0-7.581,3.394-7.581,7.581s3.394,7.581,7.581,7.581c16.54,0,264.141,0,280.559,0c2.456,0,4.798-0.482,6.956-1.331
	l18.449,16.179C487.148,318.515,486.266,318.633,485.354,318.633z M433.406,265.771v22.532h-80.869v-22.532
	c0-3.902,3.174-7.076,7.076-7.076h66.717C430.232,258.695,433.406,261.869,433.406,265.771z M337.374,288.303h-17.589l17.657-24.173
	C337.316,265.849,337.401,264.672,337.374,288.303z M313.887,270.67l-12.879,17.633h-23.633
	C304.791,275.075,313.365,270.973,313.887,270.67z M496.837,305.897l-16.519-14.487c0.866-2.177,1.357-4.543,1.357-7.024V72.065
	c0-2.416-0.47-4.719-1.292-6.849l16.455-14.43V305.897z"/>
<g>
</g>
<g>
</g>
<g>
</g>
<g>
</g>
<g>
</g>
<g>
</g>
<g>
</g>
<g>
</g>
<g>
</g>
<g>
</g>
<g>
</g>
<g>
</g>
<g>
</g>
<g>
</g>
<g>
</g>
</svg>
