<svg id="Capa_1" enable-background="new 0 0 512 512" height="512" viewBox="0 0 512 512" width="512" xmlns="http://www.w3.org/2000/svg"><path d="m152.447 452.831h-49.474v51.371c0 4.307 3.491 7.798 7.798 7.798h18.939c3.65 0 6.812-2.532 7.609-6.095z" fill="#9e5528"/><path d="m359.553 452.831h49.474v51.371c0 4.307-3.491 7.798-7.798 7.798h-18.939c-3.65 0-6.812-2.532-7.609-6.095z" fill="#9e5528"/><path d="m423.038 458.287h-334.076c-5.405 0-9.786-4.381-9.786-9.786v-27.782h353.648v27.781c0 5.405-4.381 9.787-9.786 9.787z" fill="#9e5528"/><path d="m376.507 53.094c-6.688 0-13.188.803-19.409 2.317-11.653 2.837-23.614-2.48-29.395-12.988-13.91-25.287-40.804-42.423-71.703-42.423s-57.793 17.136-71.703 42.423c-5.781 10.509-17.742 15.825-29.395 12.988-6.222-1.514-12.722-2.317-19.409-2.317-108.417-.001-94.035 154.606-55.653 221.448l41.339 76.986h134.818 134.818l41.252-76.824c38.451-66.755 52.944-221.611-55.56-221.61z" fill="#fdb441"/><path d="m432.071 274.704-41.259 76.82h-37.31l27.779-54.41c17.072-35.851 33.619-66.014 39.347-99.437 4.852-28.307 6.219-60.965-5.974-87.787-8.649-19.027-28.719-33.467-50.46-30.934-8.722 1.016-17.12 3.932-25.814 5.157-35.106 4.945-45.549-28.016-68.883-45.67-14.133-10.692-31.582-16.524-49.301-16.524-8.108 0-15.933 1.179-23.325 3.38 14.89-15.585 35.878-25.295 59.129-25.295 30.897 0 57.792 17.133 71.703 42.417 5.781 10.509 17.744 15.827 29.391 12.984 6.224-1.506 12.731-2.317 19.418-2.317 108.496.001 94.006 154.863 55.559 221.616z" fill="#fea613"/><path d="m442.866 228.893c-28.986.376-52.045 24.539-52.045 53.527v54.395c0 8.126-6.587 14.713-14.713 14.713h-240.217c-8.126 0-14.713-6.587-14.713-14.713v-54.395c0-28.988-23.059-53.151-52.045-53.527-29.451-.382-53.445 23.377-53.445 52.74 0 24.39 16.559 44.904 39.046 50.937v66.765c0 14.615 11.847 26.462 26.462 26.462h349.608c14.615 0 26.462-11.847 26.462-26.462v-55.082c0-6.44 3.615-12.377 9.403-15.201 17.55-8.564 29.643-26.576 29.643-47.418-.001-29.364-23.995-53.123-53.446-52.741z" fill="#fe9901"/><path d="m496.307 281.633c0 20.84-12.089 38.858-29.644 47.419-5.781 2.822-9.393 8.761-9.393 15.196v55.085c0 14.616-11.857 26.463-26.463 26.463h-349.614c-14.606 0-26.463-11.847-26.463-26.463v-2.38c4.57 4.181 10.636 6.729 17.312 6.729h338.494c14.143 0 25.621-11.468 25.621-25.621v-53.327c0-6.234 3.496-11.984 9.098-14.722 16.996-8.288 28.706-25.726 28.706-45.913 0-11.868-4.054-22.788-10.857-31.465 19.461 7.762 33.203 26.78 33.203 48.999z" fill="#fb8801"/><g fill="#ffefd2"><path d="m255.997 286.75c-10.101-.054-20.158.326-30.101 1.286-17.978 1.736-35.884 3.618-53.778 6.13-17.02 2.389-34.026 5.006-50.939 8.066v34.583c0 8.126 6.587 14.713 14.713 14.713h120.108 120.109c8.126 0 14.713-6.587 14.713-14.713 0 0 0-34.577 0-34.583 0-2.402-62.804-9.687-67.131-10.237-22.242-2.827-45.077-5.124-67.694-5.245z"/><circle cx="173.212" cy="182.964" r="14.714"/><circle cx="338.788" cy="182.964" r="14.714"/><circle cx="256" cy="122.243" r="14.714"/></g></svg>