<svg id="Layer_1" enable-background="new 0 0 128 128" height="512" viewBox="0 0 128 128" width="512" xmlns="http://www.w3.org/2000/svg"><path d="m120.823 50.682-.918-.609 2.069-3.121c.847-1.278 1.146-2.811.841-4.314-.306-1.503-1.178-2.798-2.456-3.646-1.279-.848-2.813-1.146-4.314-.842-1.504.305-2.799 1.177-3.646 2.456l-2.621 3.954v.001l-10.089 15.221-1.965 2.965v-45.59c0-3.383-2.752-6.135-6.135-6.135h-68.982c-3.383 0-6.135 2.752-6.135 6.135v2.673h-2.948c-2.456 0-4.454 1.999-4.454 4.455s1.998 4.454 4.454 4.454h2.948v5.111h-2.948c-2.456 0-4.454 1.999-4.454 4.455s1.998 4.454 4.454 4.454h2.948v5.111h-2.948c-2.456 0-4.454 1.999-4.454 4.455s1.998 4.455 4.454 4.455h2.948v5.11h-2.948c-2.456 0-4.454 1.999-4.454 4.455s1.998 4.455 4.454 4.455h2.948v5.11h-2.948c-2.456 0-4.454 1.999-4.454 4.455s1.998 4.455 4.454 4.455h2.948v5.111h-2.948c-2.456 0-4.454 1.998-4.454 4.454s1.998 4.455 4.454 4.455h2.948v4.426h-2.948c-2.456 0-4.454 1.999-4.454 4.455s1.998 4.455 4.454 4.455h2.948v3.266c0 3.056 2.485 5.542 5.541 5.542h68.283c4.096 0 7.428-3.333 7.428-7.428v-30.015l11.541-17.414 9.534-14.386.919.609c.223.147.374.373.427.634.054.262.002.528-.146.751l-12.617 19.038-2.602 2.085c-.431.346-.5.975-.154 1.406.197.247.488.375.781.375.219 0 .44-.072.625-.22l2.723-2.183c.08-.065.15-.142.208-.228l12.704-19.168c.442-.668.599-1.468.439-2.254-.16-.785-.615-1.461-1.283-1.904z" fill="#e6e7e8"/><path d="m86.297 115.979h-68.283c-2.508 0-4.542-2.033-4.542-4.542v-98.281c0-2.836 2.299-5.135 5.135-5.135h68.983c2.836 0 5.135 2.299 5.135 5.135v96.394c0 3.551-2.878 6.429-6.428 6.429z" fill="#ffd7e5"/><path d="m87.589 8.021h-68.981c-2.836 0-5.135 2.299-5.135 5.135v3c0-2.836 2.299-5.135 5.135-5.135h68.982c2.836 0 5.135 2.299 5.135 5.135v-3c0-2.836-2.299-5.135-5.136-5.135z" fill="#fff"/><g fill="#fa759e"><path d="m17.42 23.738h-7.896c-1.908 0-3.454-1.547-3.454-3.454 0-1.908 1.547-3.454 3.454-3.454h7.896c1.908 0 3.454 1.547 3.454 3.454.001 1.907-1.546 3.454-3.454 3.454z"/><path d="m17.42 37.758h-7.896c-1.908 0-3.454-1.547-3.454-3.454 0-1.908 1.547-3.454 3.454-3.454h7.896c1.908 0 3.454 1.547 3.454 3.454.001 1.907-1.546 3.454-3.454 3.454z"/><path d="m17.42 51.777h-7.896c-1.908 0-3.454-1.547-3.454-3.454 0-1.908 1.547-3.454 3.454-3.454h7.896c1.908 0 3.454 1.547 3.454 3.454.001 1.908-1.546 3.454-3.454 3.454z"/><path d="m17.42 65.797h-7.896c-1.908 0-3.454-1.547-3.454-3.454 0-1.908 1.547-3.454 3.454-3.454h7.896c1.908 0 3.454 1.547 3.454 3.454.001 1.907-1.546 3.454-3.454 3.454z"/><path d="m17.42 79.816h-7.896c-1.908 0-3.454-1.547-3.454-3.454 0-1.908 1.547-3.454 3.454-3.454h7.896c1.908 0 3.454 1.547 3.454 3.454.001 1.908-1.546 3.454-3.454 3.454z"/><path d="m17.42 93.836h-7.896c-1.908 0-3.454-1.547-3.454-3.454 0-1.908 1.547-3.454 3.454-3.454h7.896c1.908 0 3.454 1.547 3.454 3.454.001 1.907-1.546 3.454-3.454 3.454z"/><path d="m17.42 107.171h-7.896c-1.908 0-3.454-1.547-3.454-3.454 0-1.908 1.547-3.454 3.454-3.454h7.896c1.908 0 3.454 1.547 3.454 3.454.001 1.907-1.546 3.454-3.454 3.454z"/></g><path d="m70.342 70.392h38.823v9.487h-38.823z" fill="#6dc9f7" transform="matrix(.552 -.834 .834 .552 -22.459 108.444)"/><path d="m100.777 42.215h9.487v18.259h-9.487z" fill="#fa759e" transform="matrix(.834 .552 -.552 .834 45.927 -49.747)"/><path d="m114.519 46.355-7.908-5.241 2.62-3.954c1.447-2.184 4.391-2.781 6.575-1.334 2.184 1.447 2.781 4.391 1.334 6.575z" fill="#ffd7e5"/><path d="m72.371 101.365 2.705-12.669 7.908 5.241z" fill="#fa759e"/><path d="m92.725 26.849c-.553 0-1 .448-1 1v9.651c0 .552.447 1 1 1s1-.448 1-1v-9.651c0-.553-.447-1-1-1z" fill="#3a2c60"/><path d="m77.817 24.036h-45.149c-.553 0-1 .448-1 1s.447 1 1 1h45.148c.553 0 1-.448 1-1s-.447-1-.999-1z" fill="#3a2c60"/><path d="m77.817 36.758h-45.149c-.553 0-1 .448-1 1s.447 1 1 1h45.148c.553 0 1-.448 1-1s-.447-1-.999-1z" fill="#3a2c60"/><path d="m77.817 49.479h-45.149c-.553 0-1 .448-1 1s.447 1 1 1h45.148c.553 0 1-.448 1-1s-.447-1-.999-1z" fill="#3a2c60"/><path d="m77.817 62.201h-45.149c-.553 0-1 .448-1 1s.447 1 1 1h45.148c.553 0 1-.448 1-1s-.447-1-.999-1z" fill="#3a2c60"/><path d="m77.817 74.922h-45.149c-.553 0-1 .448-1 1s.447 1 1 1h45.148c.553 0 1-.448 1-1s-.447-1-.999-1z" fill="#3a2c60"/><path d="m116.823 46.682-.918-.609 2.068-3.12c1.749-2.64 1.025-6.211-1.614-7.96-2.641-1.749-6.211-1.025-7.962 1.615l-2.62 3.954-10.087 15.22-1.965 2.965v-17.497c0-.552-.447-1-1-1s-1 .448-1 1v20.514l-17.151 25.879h-41.906c-.553 0-1 .448-1 1s.447 1 1 1h41.184l-2.289 10.722h-38.895c-.553 0-1 .448-1 1s.447 1 1 1h39.574c.019 0 .035-.01.054-.011.025.002.05.011.075.011.201 0 .401-.061.573-.181l10.599-7.418.014-.01c.093-.065.168-.149.232-.238.008-.011.021-.017.028-.029l7.906-11.93v26.991c0 2.993-2.435 5.428-5.428 5.428h-68.281c-1.953 0-3.542-1.589-3.542-3.542v-3.267h2.948c2.456 0 4.455-1.999 4.455-4.455s-1.999-4.454-4.455-4.454h-2.948v-4.426h2.948c2.456 0 4.455-1.998 4.455-4.454s-1.999-4.455-4.455-4.455h-2.948v-5.111h2.948c2.456 0 4.455-1.998 4.455-4.454s-1.999-4.455-4.455-4.455h-2.948v-5.111h2.948c2.456 0 4.455-1.999 4.455-4.455s-1.999-4.454-4.455-4.454h-2.948v-5.111h2.948c2.456 0 4.455-1.999 4.455-4.455s-1.999-4.455-4.455-4.455h-2.948v-5.11h2.948c2.456 0 4.455-1.999 4.455-4.455s-1.999-4.455-4.455-4.455h-2.948v-5.11h2.948c2.456 0 4.455-1.999 4.455-4.455s-1.999-4.455-4.455-4.455h-2.948v-2.672c0-2.28 1.855-4.135 4.136-4.135h68.982c2.28 0 4.135 1.855 4.135 4.135v10.582c0 .552.447 1 1 1s1-.448 1-1v-10.577c0-3.383-2.752-6.135-6.135-6.135h-68.982c-3.383 0-6.136 2.752-6.136 6.135v2.672h-2.947c-2.456 0-4.455 1.999-4.455 4.455s1.999 4.455 4.455 4.455h2.947v5.11h-2.947c-2.456 0-4.455 1.999-4.455 4.455s1.999 4.455 4.455 4.455h2.947v5.11h-2.947c-2.456 0-4.455 1.999-4.455 4.455s1.999 4.455 4.455 4.455h2.947v5.111h-2.947c-2.456 0-4.455 1.998-4.455 4.454s1.999 4.455 4.455 4.455h2.947v5.111h-2.947c-2.456 0-4.455 1.999-4.455 4.455s1.999 4.454 4.455 4.454h2.947v5.111h-2.947c-2.456 0-4.455 1.999-4.455 4.455s1.999 4.454 4.455 4.454h2.947v4.426h-2.947c-2.456 0-4.455 1.998-4.455 4.454s1.999 4.455 4.455 4.455h2.947v3.267c0 3.056 2.486 5.542 5.542 5.542h68.283c4.096 0 7.428-3.333 7.428-7.428v-30.013l11.541-17.414 9.534-14.387.918.608c.46.305.585.926.28 1.386l-12.616 19.038-2.602 2.085c-.431.346-.5.975-.154 1.406.197.247.488.375.781.375.219 0 .44-.072.625-.22l2.723-2.183c.08-.065.15-.142.208-.228l12.703-19.168c.442-.668.599-1.468.439-2.253-.159-.786-.614-1.462-1.282-1.905zm-109.753-26.398c0-1.354 1.102-2.455 2.455-2.455h7.896c1.354 0 2.455 1.101 2.455 2.455s-1.102 2.455-2.455 2.455h-7.896c-1.354-.001-2.455-1.102-2.455-2.455zm0 14.019c0-1.354 1.102-2.455 2.455-2.455h7.896c1.354 0 2.455 1.101 2.455 2.455s-1.102 2.455-2.455 2.455h-7.896c-1.354 0-2.455-1.101-2.455-2.455zm0 14.02c0-1.354 1.102-2.455 2.455-2.455h7.896c1.354 0 2.455 1.101 2.455 2.455s-1.102 2.455-2.455 2.455h-7.896c-1.354-.001-2.455-1.102-2.455-2.455zm0 14.019c0-1.353 1.102-2.454 2.455-2.454h7.896c1.354 0 2.455 1.101 2.455 2.454 0 1.354-1.102 2.455-2.455 2.455h-7.896c-1.354 0-2.455-1.101-2.455-2.455zm0 14.02c0-1.354 1.102-2.455 2.455-2.455h7.896c1.354 0 2.455 1.101 2.455 2.455 0 1.353-1.102 2.454-2.455 2.454h-7.896c-1.354 0-2.455-1.101-2.455-2.454zm0 14.02c0-1.354 1.102-2.455 2.455-2.455h7.896c1.354 0 2.455 1.101 2.455 2.455 0 1.353-1.102 2.454-2.455 2.454h-7.896c-1.354 0-2.455-1.101-2.455-2.454zm0 13.334c0-1.353 1.102-2.454 2.455-2.454h7.896c1.354 0 2.455 1.101 2.455 2.454 0 1.354-1.102 2.455-2.455 2.455h-7.896c-1.354 0-2.455-1.101-2.455-2.455zm97.081-43.527-.22-.146-6.021-3.99 8.982-13.553 6.241 4.136zm5.914-22.477c1.139-1.72 3.467-2.193 5.188-1.052 1.721 1.14 2.192 3.468 1.052 5.189l-2.067 3.12-6.241-4.136zm-13.26 20.008.22.146 6.021 3.99-20.343 30.695-6.241-4.136zm-21.057 32.621 5.46 3.619-7.328 5.129z" fill="#3a2c60"/></svg>