<?xml version="1.0" encoding="iso-8859-1"?>
<!-- Generator: Adobe Illustrator 19.0.0, SVG Export Plug-In . SVG Version: 6.00 Build 0)  -->
<svg width="300px" version="1.1" id="Capa_1" xmlns="http://www.w3.org/2000/svg" xmlns:xlink="http://www.w3.org/1999/xlink" x="0px" y="0px"
	 viewBox="0 0 512.002 512.002" style="enable-background:new 0 0 512.002 512.002;" xml:space="preserve" >
<path style="fill:#5A6B96;" d="M107.952,429.389c-6.769,0-13.132-2.637-17.915-7.426c-4.787-4.782-7.424-11.145-7.424-17.913
	c0-6.769,2.637-13.132,7.425-17.916c4.783-4.783,11.144-7.417,17.914-7.417c6.768,0,13.131,2.634,17.914,7.418
	c9.878,9.878,9.878,25.951,0,35.828C121.084,426.751,114.721,429.389,107.952,429.389z"/>
<path style="fill:#EFEFEF;" d="M48.091,355.323l97.548-39.144l50.183,50.183l-39.144,97.548L7.174,504.827L48.091,355.323z
	 M107.952,382.734c-5.696,0-11.05,2.217-15.075,6.241c-4.03,4.026-6.248,9.38-6.248,15.076c0,5.695,2.219,11.049,6.248,15.074
	c4.026,4.031,9.38,6.25,15.076,6.25c5.695,0,11.049-2.22,15.074-6.248c8.312-8.313,8.312-21.838,0.001-30.151
	C119.002,384.95,113.648,382.734,107.952,382.734z"/>
<polygon style="fill:#FBC640;" points="142.561,318.778 184.268,257.626 254.374,327.733 193.223,369.44 "/>
<polygon style="fill:#5A6B96;" points="181.667,260.706 454.767,7.254 504.747,57.233 251.295,330.333 "/>
<path d="M0.018,502.467c0.005,0.106,0.014,0.212,0.023,0.318c0.008,0.094,0.017,0.189,0.027,0.283
	c0.015,0.136,0.032,0.27,0.052,0.405c0.013,0.087,0.028,0.176,0.044,0.263c0.018,0.103,0.039,0.207,0.061,0.309
	c0.03,0.14,0.062,0.277,0.097,0.414c0.013,0.05,0.019,0.101,0.033,0.152c0.008,0.031,0.02,0.059,0.029,0.09
	c0.029,0.103,0.062,0.206,0.095,0.308c0.031,0.096,0.061,0.193,0.095,0.288c0.033,0.093,0.067,0.186,0.102,0.277
	c0.047,0.121,0.097,0.241,0.149,0.361c0.026,0.061,0.05,0.124,0.078,0.185c0.049,0.107,0.102,0.212,0.155,0.316
	c0.055,0.111,0.112,0.223,0.172,0.332c0.1,0.184,0.207,0.361,0.317,0.537c0.05,0.079,0.097,0.161,0.151,0.24
	c0.04,0.06,0.081,0.12,0.122,0.18c0.024,0.034,0.051,0.066,0.075,0.1c0.151,0.209,0.307,0.412,0.472,0.606
	c0.059,0.07,0.121,0.138,0.183,0.207c0.112,0.125,0.225,0.25,0.342,0.369c0.016,0.016,0.029,0.034,0.045,0.05
	c0.02,0.02,0.042,0.036,0.062,0.056c0.072,0.071,0.147,0.14,0.221,0.209c0.117,0.108,0.238,0.214,0.361,0.316
	c0.055,0.047,0.109,0.096,0.166,0.142c0.058,0.047,0.117,0.092,0.177,0.139c0.127,0.097,0.26,0.189,0.392,0.28
	c0.082,0.057,0.163,0.119,0.247,0.174c0.066,0.043,0.136,0.083,0.204,0.125c0.145,0.089,0.292,0.175,0.442,0.256
	c0.075,0.041,0.15,0.085,0.226,0.125c0.091,0.047,0.187,0.087,0.28,0.132c0.147,0.07,0.293,0.141,0.443,0.204
	c0.065,0.027,0.131,0.054,0.197,0.08c0.069,0.027,0.142,0.05,0.212,0.076c0.152,0.056,0.304,0.109,0.459,0.159
	c0.094,0.029,0.188,0.058,0.282,0.085c0.027,0.008,0.052,0.019,0.08,0.026c0.018,0.005,0.036,0.006,0.054,0.011
	c0.17,0.045,0.34,0.084,0.512,0.12c0.086,0.018,0.173,0.038,0.259,0.054c0.141,0.026,0.283,0.048,0.425,0.068
	c0.063,0.009,0.126,0.016,0.19,0.023c0.052,0.006,0.104,0.014,0.158,0.02c0.037,0.004,0.074,0.01,0.111,0.014
	c0.309,0.029,0.619,0.048,0.934,0.048c0.002,0,0.004,0,0.006,0c0.002,0,0.004,0,0.006,0c0.312,0,0.622-0.019,0.931-0.047
	c0.041-0.004,0.082-0.011,0.123-0.016c0.048-0.005,0.096-0.012,0.144-0.018c0.066-0.008,0.132-0.015,0.197-0.024
	c0.14-0.02,0.279-0.042,0.418-0.067c0.091-0.017,0.182-0.037,0.273-0.057c0.168-0.036,0.334-0.073,0.499-0.117
	c0.02-0.005,0.039-0.007,0.059-0.012l145.146-39.725c3.03-0.829,5.497-3.03,6.667-5.944l37.142-92.558l55.252-37.683
	c0.009-0.006,0.016-0.013,0.025-0.019c0.247-0.17,0.485-0.356,0.719-0.551c0.049-0.041,0.103-0.077,0.153-0.119
	c0.207-0.179,0.403-0.374,0.596-0.572c0.063-0.064,0.135-0.123,0.196-0.19c0.004-0.005,0.009-0.008,0.013-0.013L509.313,64.112
	c3.673-3.957,3.558-10.11-0.259-13.928L461.809,2.939c-3.817-3.816-9.971-3.931-13.927-0.26L177.727,253.398
	c-0.003,0.003-0.006,0.006-0.009,0.009c-0.065,0.061-0.123,0.13-0.188,0.193c-0.194,0.19-0.384,0.382-0.559,0.583
	c-0.064,0.073-0.12,0.155-0.183,0.23c-0.168,0.205-0.33,0.412-0.48,0.625c-0.015,0.021-0.032,0.04-0.047,0.062l-37.684,55.254
	L46.02,347.496c-2.915,1.17-5.115,3.636-5.944,6.667L0.357,499.312c-0.014,0.05-0.02,0.101-0.033,0.152
	c-0.035,0.138-0.068,0.275-0.097,0.414c-0.022,0.103-0.043,0.206-0.061,0.309c-0.016,0.087-0.03,0.176-0.044,0.263
	c-0.021,0.135-0.037,0.269-0.052,0.405c-0.01,0.094-0.02,0.189-0.027,0.283c-0.009,0.106-0.018,0.212-0.023,0.318
	c-0.006,0.123-0.008,0.246-0.01,0.37c-0.001,0.09-0.001,0.181,0,0.271C0.009,502.221,0.011,502.343,0.018,502.467z M454.455,23.979
	l33.567,33.567L250.971,312.972l-51.943-51.943L454.455,23.979z M186.029,276.426l49.547,49.547l-40.894,27.89l-36.544-36.544
	L186.029,276.426z M58.131,364.275l84.613-33.953l38.936,38.936l-33.953,84.613L43.919,482.281l48.623-48.623
	c4.701,2.456,9.954,3.763,15.41,3.763c8.917,0,17.296-3.475,23.597-9.781c13.004-13.01,13.003-34.175-0.004-47.183
	c-6.3-6.3-14.679-9.769-23.593-9.769s-17.293,3.47-23.589,9.766c-6.308,6.301-9.781,14.681-9.781,23.597
	c0,5.457,1.307,10.712,3.762,15.412l-48.623,48.622L58.131,364.275z M94.66,404.049c0-3.549,1.382-6.884,3.896-9.395
	c2.508-2.508,5.844-3.889,9.395-3.889c3.552,0,6.888,1.381,9.396,3.889c5.181,5.18,5.181,13.611,0,18.791
	c-0.001,0.002-0.002,0.003-0.004,0.004c-2.507,2.511-5.842,3.893-9.392,3.893c-3.549,0-6.884-1.382-9.399-3.901
	C96.042,410.934,94.66,407.599,94.66,404.049z"/>
<path d="M248.901,260.858c1.961,1.96,4.53,2.94,7.099,2.94c2.569,0,5.139-0.981,7.099-2.94l52.104-52.104
	c3.92-3.92,3.92-10.277,0-14.198c-3.92-3.919-10.277-3.919-14.198,0L248.9,246.66C244.981,250.581,244.981,256.938,248.901,260.858z
	"/>
<path d="M326.711,193.088c12.919,0,12.94-20.078,0-20.078C313.791,173.009,313.77,193.088,326.711,193.088z"/>
<g>
</g>
<g>
</g>
<g>
</g>
<g>
</g>
<g>
</g>
<g>
</g>
<g>
</g>
<g>
</g>
<g>
</g>
<g>
</g>
<g>
</g>
<g>
</g>
<g>
</g>
<g>
</g>
<g>
</g>
</svg>
